<svg xmlns="http://www.w3.org/2000/svg" xmlns:xlink="http://www.w3.org/1999/xlink" width="375" height="375" viewBox="0 0 375 375">
  <defs>
    <linearGradient id="linear-gradient" x1="0.5" x2="0.964" y2="0.873" gradientUnits="objectBoundingBox">
      <stop offset="0" stop-color="#395aff"/>
      <stop offset="1" stop-color="#395aff" stop-opacity="0.655"/>
    </linearGradient>
    <filter id="Subtraction_1" x="119" y="108" width="137.727" height="165" filterUnits="userSpaceOnUse">
      <feOffset dy="3" input="SourceAlpha"/>
      <feGaussianBlur stdDeviation="3" result="blur"/>
      <feFlood flood-color="#fff" flood-opacity="0.29"/>
      <feComposite operator="in" in2="blur"/>
      <feComposite in="SourceGraphic"/>
    </filter>
  </defs>
  <g id="Group_311" data-name="Group 311" transform="translate(-431 -1160)">
    <rect id="Rectangle_31" data-name="Rectangle 31" width="375" height="375" rx="87" transform="translate(431 1160)" fill="url(#linear-gradient)"/>
    <g transform="matrix(1, 0, 0, 1, 431, 1160)" filter="url(#Subtraction_1)">
      <path id="Subtraction_1-2" data-name="Subtraction 1" d="M59.864,147h0c-.038-.025-3.831-2.578-9.353-6.995a204.2,204.2,0,0,1-20.578-18.9A134.712,134.712,0,0,1,9.354,93.441,83.216,83.216,0,0,1,2.572,77.3,61,61,0,0,1,0,60.136,60.129,60.129,0,0,1,36.562,4.726,59.577,59.577,0,0,1,93.334,10.27a60.13,60.13,0,0,1,26.393,49.866A61,61,0,0,1,117.155,77.3a83.217,83.217,0,0,1-6.781,16.143A134.712,134.712,0,0,1,89.8,121.108,202.73,202.73,0,0,1,69.217,140C63.7,144.422,59.9,146.974,59.864,147Zm.508-110.087a18.167,18.167,0,0,0-12.911,5.368,18.358,18.358,0,0,0,5.8,29.848A18.2,18.2,0,0,0,73.283,68.2a18.359,18.359,0,0,0-5.8-29.849A18.086,18.086,0,0,0,60.372,36.913Z" transform="translate(128 114)" fill="#fff"/>
    </g>
  </g>
</svg>
